<svg xmlns="http://www.w3.org/2000/svg" xmlns:xlink="http://www.w3.org/1999/xlink" xmlns:lucid="lucid" width="821" height="671"><g transform="translate(-39 -549)" lucid:page-tab-id="0_0"><path d="M580 1144c0 30.93-80.6 56-180 56s-180-25.07-180-56V696c0-30.93 80.6-56 180-56s180 25.07 180 56z" stroke="#fff" stroke-width="2" fill="#005744"/><path d="M580 696c0 30.93-80.6 56-180 56s-180-25.07-180-56" stroke="#fff" stroke-width="2" fill="none"/><use xlink:href="#a" transform="matrix(1,0,0,1,225,757) translate(137.8827160493827 24.888888888888893)"/><path d="M820 700c0 33.14-26.86 60-60 60s-60-26.86-60-60 26.86-60 60-60 60 26.86 60 60z" stroke="#fff" stroke-width="2" fill="#005744"/><use xlink:href="#b" transform="matrix(1,0,0,1,705,645) translate(11.833333333333329 61.22222222222222)"/><path d="M400 1020l77.5 80-77.5 80-77.5-80z" stroke="#fff" stroke-width="2" fill="#005744"/><use xlink:href="#c" transform="matrix(1,0,0,1,327.5,1025) translate(13.820987654320987 81.22222222222223)"/><path d="M345 860h110v100H345z" stroke="#fff" stroke-width="2" fill="#005744"/><use xlink:href="#d" transform="matrix(1,0,0,1,350,865) translate(13.703703703703702 51.22222222222222)"/><path d="M680 850h160v120H680z" stroke="#fff" stroke-width="2" fill="#005744"/><use xlink:href="#e" transform="matrix(1,0,0,1,685,855) translate(41.68518518518518 61.22222222222222)"/><path d="M457 910h203.5" stroke="#fff" stroke-width="2" fill="none"/><path d="M457.03 911H456v-2h1.03z" fill="#fff"/><path d="M675.76 910l-14.26 4.64v-9.28z" stroke="#fff" stroke-width="2" fill="#fff"/><path d="M400 1017.56V979.5" stroke="#fff" stroke-width="2" fill="none"/><path d="M401 1019.6l-1-1.04-1 1.04v-2.06h2z" fill="#fff"/><path d="M400 964.24l4.64 14.26h-9.28z" stroke="#fff" stroke-width="2" fill="#fff"/><path d="M760 848v-68.5" stroke="#fff" stroke-width="2" fill="none"/><path d="M761 849h-2v-1.03h2z" fill="#fff"/><path d="M760 764.24l4.64 14.26h-9.28z" stroke="#fff" stroke-width="2" fill="#fff"/><path d="M760 638v-78H50v540h252.6" stroke="#fff" stroke-width="2" fill="none"/><path d="M761 639.04l-1-.04-1 .03v-1.06h2z" fill="#fff"/><path d="M317.87 1100l-14.26 4.64v-9.28z" stroke="#fff" stroke-width="2" fill="#fff"/><defs><path fill="#fff" d="M185-189c-5-48-123-54-124 2 14 75 158 14 163 119 3 78-121 87-175 55-17-10-28-26-33-46l33-7c5 56 141 63 141-1 0-78-155-14-162-118-5-82 145-84 179-34 5 7 8 16 11 25" id="f"/><path fill="#fff" d="M59-47c-2 24 18 29 38 22v24C64 9 27 4 27-40v-127H5v-23h24l9-43h21v43h35v23H59v120" id="g"/><path fill="#fff" d="M100-194c62-1 85 37 85 99 1 63-27 99-86 99S16-35 15-95c0-66 28-99 85-99zM99-20c44 1 53-31 53-75 0-43-8-75-51-75s-53 32-53 75 10 74 51 75" id="h"/><path fill="#fff" d="M114-163C36-179 61-72 57 0H25l-1-190h30c1 12-1 29 2 39 6-27 23-49 58-41v29" id="i"/><path fill="#fff" d="M100-194c63 0 86 42 84 106H49c0 40 14 67 53 68 26 1 43-12 49-29l28 8c-11 28-37 45-77 45C44 4 14-33 15-96c1-61 26-98 85-98zm52 81c6-60-76-77-97-28-3 7-6 17-6 28h103" id="j"/><g id="a"><use transform="matrix(0.08641975308641976,0,0,0.08641975308641976,0,0)" xlink:href="#f"/><use transform="matrix(0.08641975308641976,0,0,0.08641975308641976,20.740740740740744,0)" xlink:href="#g"/><use transform="matrix(0.08641975308641976,0,0,0.08641975308641976,29.382716049382726,0)" xlink:href="#h"/><use transform="matrix(0.08641975308641976,0,0,0.08641975308641976,46.66666666666667,0)" xlink:href="#i"/><use transform="matrix(0.08641975308641976,0,0,0.08641975308641976,56.95061728395062,0)" xlink:href="#j"/></g><path fill="#fff" d="M205 0l-28-72H64L36 0H1l101-248h38L239 0h-34zm-38-99l-47-123c-12 45-31 82-46 123h93" id="k"/><path fill="#fff" d="M96-169c-40 0-48 33-48 73s9 75 48 75c24 0 41-14 43-38l32 2c-6 37-31 61-74 61-59 0-76-41-82-99-10-93 101-131 147-64 4 7 5 14 7 22l-32 3c-4-21-16-35-41-35" id="l"/><path fill="#fff" d="M24-231v-30h32v30H24zM24 0v-190h32V0H24" id="m"/><path fill="#fff" d="M117-194c89-4 53 116 60 194h-32v-121c0-31-8-49-39-48C34-167 62-67 57 0H25l-1-190h30c1 10-1 24 2 32 11-22 29-35 61-36" id="n"/><g id="b"><use transform="matrix(0.08641975308641976,0,0,0.08641975308641976,0,0)" xlink:href="#k"/><use transform="matrix(0.08641975308641976,0,0,0.08641975308641976,20.740740740740744,0)" xlink:href="#l"/><use transform="matrix(0.08641975308641976,0,0,0.08641975308641976,36.296296296296305,0)" xlink:href="#g"/><use transform="matrix(0.08641975308641976,0,0,0.08641975308641976,44.93827160493828,0)" xlink:href="#m"/><use transform="matrix(0.08641975308641976,0,0,0.08641975308641976,51.765432098765444,0)" xlink:href="#h"/><use transform="matrix(0.08641975308641976,0,0,0.08641975308641976,69.0493827160494,0)" xlink:href="#n"/></g><path fill="#fff" d="M233-177c-1 41-23 64-60 70L243 0h-38l-65-103H63V0H30v-248c88 3 205-21 203 71zM63-129c60-2 137 13 137-47 0-61-80-42-137-45v92" id="o"/><path fill="#fff" d="M85-194c31 0 48 13 60 33l-1-100h32l1 261h-30c-2-10 0-23-3-31C134-8 116 4 85 4 32 4 16-35 15-94c0-66 23-100 70-100zm9 24c-40 0-46 34-46 75 0 40 6 74 45 74 42 0 51-32 51-76 0-42-9-74-50-73" id="p"/><path fill="#fff" d="M84 4C-5 8 30-112 23-190h32v120c0 31 7 50 39 49 72-2 45-101 50-169h31l1 190h-30c-1-10 1-25-2-33-11 22-28 36-60 37" id="q"/><g id="c"><use transform="matrix(0.08641975308641976,0,0,0.08641975308641976,0,0)" xlink:href="#o"/><use transform="matrix(0.08641975308641976,0,0,0.08641975308641976,22.38271604938272,0)" xlink:href="#j"/><use transform="matrix(0.08641975308641976,0,0,0.08641975308641976,39.66666666666667,0)" xlink:href="#p"/><use transform="matrix(0.08641975308641976,0,0,0.08641975308641976,56.95061728395062,0)" xlink:href="#q"/><use transform="matrix(0.08641975308641976,0,0,0.08641975308641976,74.23456790123457,0)" xlink:href="#l"/><use transform="matrix(0.08641975308641976,0,0,0.08641975308641976,89.79012345679013,0)" xlink:href="#j"/><use transform="matrix(0.08641975308641976,0,0,0.08641975308641976,107.07407407407409,0)" xlink:href="#i"/></g><path fill="#fff" d="M141-36C126-15 110 5 73 4 37 3 15-17 15-53c-1-64 63-63 125-63 3-35-9-54-41-54-24 1-41 7-42 31l-33-3c5-37 33-52 76-52 45 0 72 20 72 64v82c-1 20 7 32 28 27v20c-31 9-61-2-59-35zM48-53c0 20 12 33 32 33 41-3 63-29 60-74-43 2-92-5-92 41" id="r"/><g id="d"><use transform="matrix(0.08641975308641976,0,0,0.08641975308641976,0,0)" xlink:href="#f"/><use transform="matrix(0.08641975308641976,0,0,0.08641975308641976,20.740740740740744,0)" xlink:href="#g"/><use transform="matrix(0.08641975308641976,0,0,0.08641975308641976,29.382716049382726,0)" xlink:href="#r"/><use transform="matrix(0.08641975308641976,0,0,0.08641975308641976,46.66666666666667,0)" xlink:href="#g"/><use transform="matrix(0.08641975308641976,0,0,0.08641975308641976,55.308641975308646,0)" xlink:href="#j"/></g><path fill="#fff" d="M137 0h-34L2-248h35l83 218 83-218h36" id="s"/><path fill="#fff" d="M206 0h-36l-40-164L89 0H53L-1-190h32L70-26l43-164h34l41 164 42-164h31" id="t"/><g id="e"><use transform="matrix(0.08641975308641976,0,0,0.08641975308641976,0,0)" xlink:href="#s"/><use transform="matrix(0.08641975308641976,0,0,0.08641975308641976,20.135802469135804,0)" xlink:href="#m"/><use transform="matrix(0.08641975308641976,0,0,0.08641975308641976,26.962962962962965,0)" xlink:href="#j"/><use transform="matrix(0.08641975308641976,0,0,0.08641975308641976,44.24691358024692,0)" xlink:href="#t"/></g></defs></g></svg>