<svg xmlns="http://www.w3.org/2000/svg" xmlns:xlink="http://www.w3.org/1999/xlink" xmlns:lucid="lucid" width="1540" height="1400"><g transform="translate(-40 20)" lucid:page-tab-id="30X_g8aT9IPz"><path d="M810 0l750 680-750 680L60 680z" stroke="#fff" stroke-width="2" fill="#005744"/><use xlink:href="#a" transform="matrix(1,0,0,1,65,5) translate(553.4074074074074 227.77777777777777)"/><use xlink:href="#b" transform="matrix(1,0,0,1,65,5) translate(701.8765432098766 227.77777777777777)"/><path d="M605 323.45l125 112.5-125 112.5-125-112.5z" stroke="#fff" stroke-width="2" fill="#005744"/><use xlink:href="#c" transform="matrix(1,0,0,1,485,328.4471343358215) translate(80.55555555555556 116.38888888888889)"/><path d="M605 567.47l125 112.5-125 112.5-125-112.5z" stroke="#fff" stroke-width="2" fill="#005744"/><use xlink:href="#d" transform="matrix(1,0,0,1,485,572.4700216597644) translate(49.75308641975309 116.38888888888889)"/><path d="M605 817.6l125 112.5-125 112.5-125-112.5z" stroke="#fff" stroke-width="2" fill="#005744"/><use xlink:href="#e" transform="matrix(1,0,0,1,485,822.6051586129958) translate(28.64197530864199 116.38888888888889)"/><path d="M1025 323.45l125 112.5-125 112.5-125-112.5z" stroke="#fff" stroke-width="2" fill="#005744"/><use xlink:href="#f" transform="matrix(1,0,0,1,905,328.4471343358215) translate(74.38271604938272 116.38888888888889)"/><path d="M1025 567.47l125 112.5-125 112.5-125-112.5z" stroke="#fff" stroke-width="2" fill="#005744"/><use xlink:href="#g" transform="matrix(1,0,0,1,905,572.4700216597644) translate(54.81481481481481 116.38888888888889)"/><path d="M1025 817.6l125 112.5-125 112.5-125-112.5z" stroke="#fff" stroke-width="2" fill="#005744"/><use xlink:href="#h" transform="matrix(1,0,0,1,905,822.6051586129958) translate(39.32098765432099 116.38888888888889)"/><defs><path fill="#fff" d="M233-177c-1 41-23 64-60 70L243 0h-38l-65-103H63V0H30v-248c88 3 205-21 203 71zM63-129c60-2 137 13 137-47 0-61-80-42-137-45v92" id="i"/><path fill="#fff" d="M100-194c62-1 85 37 85 99 1 63-27 99-86 99S16-35 15-95c0-66 28-99 85-99zM99-20c44 1 53-31 53-75 0-43-8-75-51-75s-53 32-53 75 10 74 51 75" id="j"/><path fill="#fff" d="M59-47c-2 24 18 29 38 22v24C64 9 27 4 27-40v-127H5v-23h24l9-43h21v43h35v23H59v120" id="k"/><g id="a"><use transform="matrix(0.17283950617283952,0,0,0.17283950617283952,0,0)" xlink:href="#i"/><use transform="matrix(0.17283950617283952,0,0,0.17283950617283952,44.76543209876544,0)" xlink:href="#j"/><use transform="matrix(0.17283950617283952,0,0,0.17283950617283952,79.33333333333334,0)" xlink:href="#j"/><use transform="matrix(0.17283950617283952,0,0,0.17283950617283952,113.90123456790124,0)" xlink:href="#k"/></g><path fill="#fff" d="M100-194c63 0 86 42 84 106H49c0 40 14 67 53 68 26 1 43-12 49-29l28 8c-11 28-37 45-77 45C44 4 14-33 15-96c1-61 26-98 85-98zm52 81c6-60-76-77-97-28-3 7-6 17-6 28h103" id="l"/><path fill="#fff" d="M85-194c31 0 48 13 60 33l-1-100h32l1 261h-30c-2-10 0-23-3-31C134-8 116 4 85 4 32 4 16-35 15-94c0-66 23-100 70-100zm9 24c-40 0-46 34-46 75 0 40 6 74 45 74 42 0 51-32 51-76 0-42-9-74-50-73" id="m"/><path fill="#fff" d="M84 4C-5 8 30-112 23-190h32v120c0 31 7 50 39 49 72-2 45-101 50-169h31l1 190h-30c-1-10 1-25-2-33-11 22-28 36-60 37" id="n"/><path fill="#fff" d="M96-169c-40 0-48 33-48 73s9 75 48 75c24 0 41-14 43-38l32 2c-6 37-31 61-74 61-59 0-76-41-82-99-10-93 101-131 147-64 4 7 5 14 7 22l-32 3c-4-21-16-35-41-35" id="o"/><path fill="#fff" d="M114-163C36-179 61-72 57 0H25l-1-190h30c1 12-1 29 2 39 6-27 23-49 58-41v29" id="p"/><g id="b"><use transform="matrix(0.17283950617283952,0,0,0.17283950617283952,0,0)" xlink:href="#i"/><use transform="matrix(0.17283950617283952,0,0,0.17283950617283952,44.76543209876544,0)" xlink:href="#l"/><use transform="matrix(0.17283950617283952,0,0,0.17283950617283952,79.33333333333334,0)" xlink:href="#m"/><use transform="matrix(0.17283950617283952,0,0,0.17283950617283952,113.90123456790124,0)" xlink:href="#n"/><use transform="matrix(0.17283950617283952,0,0,0.17283950617283952,148.46913580246914,0)" xlink:href="#o"/><use transform="matrix(0.17283950617283952,0,0,0.17283950617283952,179.58024691358025,0)" xlink:href="#l"/><use transform="matrix(0.17283950617283952,0,0,0.17283950617283952,214.14814814814818,0)" xlink:href="#p"/></g><path fill="#fff" d="M143 4C61 4 22-44 18-125c-5-107 100-154 193-111 17 8 29 25 37 43l-32 9c-13-25-37-40-76-40-61 0-88 39-88 99 0 61 29 100 91 101 35 0 62-11 79-27v-45h-74v-28h105v86C228-13 192 4 143 4" id="q"/><path fill="#fff" d="M24-231v-30h32v30H24zM24 0v-190h32V0H24" id="r"/><path fill="#fff" d="M101-234c-31-9-42 10-38 44h38v23H63V0H32v-167H5v-23h27c-7-52 17-82 69-68v24" id="s"/><path fill="#fff" d="M135-143c-3-34-86-38-87 0 15 53 115 12 119 90S17 21 10-45l28-5c4 36 97 45 98 0-10-56-113-15-118-90-4-57 82-63 122-42 12 7 21 19 24 35" id="t"/><g id="c"><use transform="matrix(0.12345679012345678,0,0,0.12345679012345678,0,0)" xlink:href="#q"/><use transform="matrix(0.12345679012345678,0,0,0.12345679012345678,34.5679012345679,0)" xlink:href="#r"/><use transform="matrix(0.12345679012345678,0,0,0.12345679012345678,44.32098765432099,0)" xlink:href="#s"/><use transform="matrix(0.12345679012345678,0,0,0.12345679012345678,56.666666666666664,0)" xlink:href="#t"/></g><path fill="#fff" d="M240 0l2-218c-23 76-54 145-80 218h-23L58-218 59 0H30v-248h44l77 211c21-75 51-140 76-211h43V0h-30" id="u"/><path fill="#fff" d="M108 0H70L1-190h34L89-25l56-165h34" id="v"/><g id="d"><use transform="matrix(0.12345679012345678,0,0,0.12345679012345678,0,0)" xlink:href="#u"/><use transform="matrix(0.12345679012345678,0,0,0.12345679012345678,36.913580246913575,0)" xlink:href="#j"/><use transform="matrix(0.12345679012345678,0,0,0.12345679012345678,61.60493827160494,0)" xlink:href="#v"/><use transform="matrix(0.12345679012345678,0,0,0.12345679012345678,83.82716049382717,0)" xlink:href="#r"/><use transform="matrix(0.12345679012345678,0,0,0.12345679012345678,93.58024691358025,0)" xlink:href="#l"/><use transform="matrix(0.12345679012345678,0,0,0.12345679012345678,118.27160493827161,0)" xlink:href="#t"/></g><path fill="#fff" d="M30-248c87 1 191-15 191 75 0 78-77 80-158 76V0H30v-248zm33 125c57 0 124 11 124-50 0-59-68-47-124-48v98" id="w"/><path fill="#fff" d="M141-36C126-15 110 5 73 4 37 3 15-17 15-53c-1-64 63-63 125-63 3-35-9-54-41-54-24 1-41 7-42 31l-33-3c5-37 33-52 76-52 45 0 72 20 72 64v82c-1 20 7 32 28 27v20c-31 9-61-2-59-35zM48-53c0 20 12 33 32 33 41-3 63-29 60-74-43 2-92-5-92 41" id="x"/><g id="e"><use transform="matrix(0.12345679012345678,0,0,0.12345679012345678,0,0)" xlink:href="#w"/><use transform="matrix(0.12345679012345678,0,0,0.12345679012345678,29.629629629629626,0)" xlink:href="#j"/><use transform="matrix(0.12345679012345678,0,0,0.12345679012345678,54.32098765432099,0)" xlink:href="#m"/><use transform="matrix(0.12345679012345678,0,0,0.12345679012345678,79.01234567901234,0)" xlink:href="#o"/><use transform="matrix(0.12345679012345678,0,0,0.12345679012345678,101.23456790123456,0)" xlink:href="#x"/><use transform="matrix(0.12345679012345678,0,0,0.12345679012345678,125.92592592592591,0)" xlink:href="#t"/><use transform="matrix(0.12345679012345678,0,0,0.12345679012345678,148.14814814814812,0)" xlink:href="#k"/><use transform="matrix(0.12345679012345678,0,0,0.12345679012345678,160.4938271604938,0)" xlink:href="#t"/></g><path fill="#fff" d="M185-189c-5-48-123-54-124 2 14 75 158 14 163 119 3 78-121 87-175 55-17-10-28-26-33-46l33-7c5 56 141 63 141-1 0-78-155-14-162-118-5-82 145-84 179-34 5 7 8 16 11 25" id="y"/><g id="f"><use transform="matrix(0.12345679012345678,0,0,0.12345679012345678,0,0)" xlink:href="#i"/><use transform="matrix(0.12345679012345678,0,0,0.12345679012345678,31.975308641975307,0)" xlink:href="#y"/><use transform="matrix(0.12345679012345678,0,0,0.12345679012345678,61.60493827160494,0)" xlink:href="#y"/></g><path fill="#fff" d="M127-220V0H93v-220H8v-28h204v28h-85" id="z"/><path fill="#fff" d="M206 0h-36l-40-164L89 0H53L-1-190h32L70-26l43-164h34l41 164 42-164h31" id="A"/><g id="g"><use transform="matrix(0.12345679012345678,0,0,0.12345679012345678,0,0)" xlink:href="#z"/><use transform="matrix(0.12345679012345678,0,0,0.12345679012345678,24.5679012345679,0)" xlink:href="#A"/><use transform="matrix(0.12345679012345678,0,0,0.12345679012345678,56.5432098765432,0)" xlink:href="#r"/><use transform="matrix(0.12345679012345678,0,0,0.12345679012345678,66.29629629629629,0)" xlink:href="#k"/><use transform="matrix(0.12345679012345678,0,0,0.12345679012345678,78.64197530864197,0)" xlink:href="#k"/><use transform="matrix(0.12345679012345678,0,0,0.12345679012345678,90.98765432098766,0)" xlink:href="#l"/><use transform="matrix(0.12345679012345678,0,0,0.12345679012345678,115.67901234567901,0)" xlink:href="#p"/></g><path fill="#fff" d="M137-103V0h-34v-103L8-248h37l75 118 75-118h37" id="B"/><path fill="#fff" d="M115-194c53 0 69 39 70 98 0 66-23 100-70 100C84 3 66-7 56-30L54 0H23l1-261h32v101c10-23 28-34 59-34zm-8 174c40 0 45-34 45-75 0-40-5-75-45-74-42 0-51 32-51 76 0 43 10 73 51 73" id="C"/><g id="h"><use transform="matrix(0.12345679012345678,0,0,0.12345679012345678,0,0)" xlink:href="#B"/><use transform="matrix(0.12345679012345678,0,0,0.12345679012345678,25.555555555555554,0)" xlink:href="#j"/><use transform="matrix(0.12345679012345678,0,0,0.12345679012345678,50.24691358024691,0)" xlink:href="#n"/><use transform="matrix(0.12345679012345678,0,0,0.12345679012345678,74.93827160493827,0)" xlink:href="#k"/><use transform="matrix(0.12345679012345678,0,0,0.12345679012345678,87.28395061728395,0)" xlink:href="#n"/><use transform="matrix(0.12345679012345678,0,0,0.12345679012345678,111.9753086419753,0)" xlink:href="#C"/><use transform="matrix(0.12345679012345678,0,0,0.12345679012345678,136.66666666666666,0)" xlink:href="#l"/></g></defs></g></svg>