<svg xmlns="http://www.w3.org/2000/svg" xmlns:xlink="http://www.w3.org/1999/xlink" xmlns:lucid="lucid" width="4600" height="2550.64"><g transform="translate(1640 -220)" lucid:page-tab-id="zzY_M6525Z_J"><path d="M-600 440l420 390-420 390-420-390z" stroke="#fff" stroke-width="2" fill="#005744"/><use xlink:href="#a" transform="matrix(1,0,0,1,-1015,444.9999999999998) translate(209.72222222222223 398.33333333333337)"/><use xlink:href="#b" transform="matrix(1,0,0,1,-1015,444.9999999999998) translate(368.7962962962963 398.33333333333337)"/><path d="M-1495 1440l125 112.5-125 112.5-125-112.5z" stroke="#fff" stroke-width="2" fill="#005744"/><use xlink:href="#c" transform="matrix(1,0,0,1,-1615,1445) translate(41.77777777777777 118.16666666666667)"/><path d="M-788 1440c70.7 0 128 44.77 128 100s-57.3 100-128 100h-384c-70.7 0-128-44.77-128-100s57.3-100 128-100z" stroke="#fff" stroke-width="2" fill="#005744"/><use xlink:href="#d" transform="matrix(1,0,0,1,-1295,1445) translate(85.81481481481481 105.66666666666667)"/><use xlink:href="#e" transform="matrix(1,0,0,1,-1295,1445) translate(227.88888888888889 105.66666666666667)"/><use xlink:href="#f" transform="matrix(1,0,0,1,-1295,1445) translate(346.1111111111111 105.66666666666667)"/><path d="M-860 2001.17c0 77.96-62.68 141.16-140 141.16s-140-63.2-140-141.16c0-77.97 62.68-141.17 140-141.17s140 63.2 140 141.17z" stroke="#fff" stroke-width="2" fill="#005744"/><use xlink:href="#g" transform="matrix(1,0,0,1,-1135,1865.0000000000002) translate(56.77777777777777 115.16666666666667)"/><use xlink:href="#h" transform="matrix(1,0,0,1,-1135,1865.0000000000002) translate(72.77777777777777 179.16666666666669)"/><path d="M-1302 1540h-61.9" stroke="#fff" stroke-width="2" fill="none"/><path d="M-1301 1540v1h-1.03v-2h1.05z" fill="#fff"/><path d="M-1379.16 1540l14.27-4.64v9.28z" stroke="#fff" stroke-width="2" fill="#fff"/><path d="M-1494.55 1437.75l13.6-27.54 13.3-24.3 12.66-21 12.16-18.35 11.72-16.2 11.4-14.42 11.12-12.94 10.94-11.7 10.82-10.63 10.77-9.73 10.8-8.95 10.86-8.3 11.03-7.7 11.3-7.18 11.65-6.75 12.14-6.37 12.78-6.04 13.66-5.76 14.85-5.54 16.53-5.4 19.1-5.34 23.5-5.53 34.16-6.52 137.56-22.65 25.7-6.05 21.3-5.97 18.76-6.1 17.1-6.4 15.98-6.74 15.16-7.16 14.57-7.64 14.16-8.2 13.9-8.86 13.73-9.58 13.7-10.42 13.73-11.4 13.88-12.55 9.25-9.1" stroke="#fff" stroke-width="2" fill="none"/><path d="M-1493.64 1438.17l-.6 1.18-.76-.7-2 1.8 1.56-3.17z" fill="#fff"/><path d="M-804.55 1035.84l-6.65 13.45-6.63-6.5z" stroke="#fff" stroke-width="2" fill="#fff"/><path d="M365 1427.5L490 1540l-125 112.5L240 1540z" stroke="#fff" stroke-width="2" fill="#005744"/><use xlink:href="#i" transform="matrix(1,0,0,1,245,1432.5) translate(72.66666666666666 118.16666666666667)"/><path d="M-48 1440c70.7 0 128 44.77 128 100s-57.3 100-128 100h-384c-70.7 0-128-44.77-128-100s57.3-100 128-100z" stroke="#fff" stroke-width="2" fill="#005744"/><use xlink:href="#d" transform="matrix(1,0,0,1,-555,1445) translate(85.81481481481481 105.66666666666667)"/><use xlink:href="#e" transform="matrix(1,0,0,1,-555,1445) translate(227.88888888888889 105.66666666666667)"/><use xlink:href="#f" transform="matrix(1,0,0,1,-555,1445) translate(346.1111111111111 105.66666666666667)"/><path d="M-120 2001.17c0 77.96-62.68 141.16-140 141.16s-140-63.2-140-141.16c0-77.97 62.68-141.17 140-141.17s140 63.2 140 141.17z" stroke="#fff" stroke-width="2" fill="#005744"/><use xlink:href="#j" transform="matrix(1,0,0,1,-394.9999999999998,1865.0000000000002) translate(18.037037037037024 147.16666666666669)"/><use xlink:href="#h" transform="matrix(1,0,0,1,-394.9999999999998,1865.0000000000002) translate(127.51851851851852 147.16666666666669)"/><path d="M82 1540h138" stroke="#fff" stroke-width="2" fill="none"/><path d="M82.03 1541h-1.05l.02-1v-1h1.03z" fill="#fff"/><path d="M235.27 1540l-14.27 4.64v-9.28z" stroke="#fff" stroke-width="2" fill="#fff"/><path d="M365.33 1425.2l5.9-17.26 4.62-15.6 3.4-13.53 2.45-11.88 1.73-10.55 1.14-9.46.67-8.53.28-7.77-.04-7.13-.32-6.58-.55-6.1-.74-5.7-.94-5.36-1.1-5.04-1.25-4.77-1.4-4.55-1.55-4.34-1.67-4.16-1.82-4.02-1.95-3.87-2.1-3.78-2.25-3.66-2.4-3.58-2.6-3.5-2.76-3.46-2.97-3.4-3.2-3.37-3.46-3.34-3.73-3.3-4.05-3.33-4.43-3.3-4.85-3.34-5.35-3.35-5.93-3.37-6.63-3.4-7.46-3.45-8.47-3.5-9.74-3.55-11.37-3.6-13.47-3.68-16.36-3.72-20.5-3.77-27.07-3.8-39.58-3.85-90.93-4.7-153.84-7.07-46.45-4.52-33.2-4.66-25.97-4.78-21.3-4.84-17.93-4.9-15.44-4.9-13.5-4.9-11.92-4.94-10.65-4.92-9.6-4.94-8.7-4.95-7.93-4.97-7.28-5-6.73-5.03-6.23-5.1-5.8-5.14-5.4-5.2-5.05-5.33-4.74-5.42-4.45-5.55-4.2-5.7-3.93-5.86-3.72-6.05-3.5-6.28-3.28-6.52-3.08-6.8-.44-1.1" stroke="#fff" stroke-width="2" fill="none"/><path d="M366.28 1425.5l-.47 1.38-.8-.73-1.53 1.38.92-2.68z" fill="#fff"/><path d="M-378.94 1020.16l9.24 11.82-8.72 3.17z" stroke="#fff" stroke-width="2" fill="#fff"/><path d="M1915.1 240l750 680-750 680-750-680z" stroke="#fff" stroke-width="2" fill="#005744"/><use xlink:href="#a" transform="matrix(1,0,0,1,1170.0943396226414,245) translate(539.7222222222222 231.33333333333334)"/><use xlink:href="#b" transform="matrix(1,0,0,1,1170.0943396226414,245) translate(698.7962962962963 231.33333333333334)"/><path d="M1710.1 580.8l125 112.5-125 112.5-125-112.5z" stroke="#fff" stroke-width="2" fill="#005744"/><use xlink:href="#i" transform="matrix(1,0,0,1,1590.0943396226414,585.8010563380286) translate(72.66666666666666 118.16666666666667)"/><path d="M1710.1 820.8l125 112.5-125 112.5-125-112.5z" stroke="#fff" stroke-width="2" fill="#005744"/><use xlink:href="#k" transform="matrix(1,0,0,1,1590.0943396226414,825.8010563380286) translate(35.703703703703695 118.16666666666667)"/><path d="M1710.1 1072.05l125 112.5-125 112.5-125-112.5z" stroke="#fff" stroke-width="2" fill="#005744"/><use xlink:href="#l" transform="matrix(1,0,0,1,1590.0943396226414,1077.0510563380285) translate(10.370370370370352 118.16666666666667)"/><path d="M2136.3 580.8l125 112.5-125 112.5-125-112.5z" stroke="#fff" stroke-width="2" fill="#005744"/><use xlink:href="#m" transform="matrix(1,0,0,1,2016.3074206279625,585.8010563380286) translate(65.25925925925927 118.16666666666667)"/><path d="M2136.3 820.8l125 112.5-125 112.5-125-112.5z" stroke="#fff" stroke-width="2" fill="#005744"/><use xlink:href="#c" transform="matrix(1,0,0,1,2016.3074206279625,825.8010563380286) translate(41.77777777777777 118.16666666666667)"/><path d="M2136.3 1072.05l125 112.5-125 112.5-125-112.5z" stroke="#fff" stroke-width="2" fill="#005744"/><use xlink:href="#n" transform="matrix(1,0,0,1,2016.3074206279625,1077.0510563380285) translate(23.18518518518519 118.16666666666667)"/><path d="M-874.77 2550.64c45.3 0 82 44.77 82 100s-36.7 100-82 100h-246c-45.28 0-82-44.77-82-100s36.72-100 82-100z" stroke="#fff" stroke-width="2" fill="#005744"/><use xlink:href="#o" transform="matrix(1,0,0,1,-1197.7650356935087,2555.6380851600406) translate(89.03703703703701 105.66666666666667)"/><path d="M-134 2260c46.4 0 84 44.77 84 100s-37.6 100-84 100h-252c-46.4 0-84-44.77-84-100s37.6-100 84-100z" stroke="#fff" stroke-width="2" fill="#005744"/><use xlink:href="#p" transform="matrix(1,0,0,1,-464.9999999999998,2265) translate(117.66666666666666 105.66666666666667)"/><path d="M-132 2540c45.3 0 82 44.77 82 100s-36.7 100-82 100h-246c-45.3 0-82-44.77-82-100s36.7-100 82-100z" stroke="#fff" stroke-width="2" fill="#005744"/><use xlink:href="#o" transform="matrix(1,0,0,1,-454.9999999999998,2545) translate(89.03703703703701 105.66666666666667)"/><path d="M-876.77 2270.64c46.4 0 84 44.77 84 100s-37.6 100-84 100h-252c-46.4 0-84-44.77-84-100s37.6-100 84-100z" stroke="#fff" stroke-width="2" fill="#005744"/><use xlink:href="#p" transform="matrix(1,0,0,1,-1207.7650356935087,2275.6380851600406) translate(117.66666666666666 105.66666666666667)"/><path d="M2260 2001.17c0 77.96-62.68 141.16-140 141.16s-140-63.2-140-141.16c0-77.97 62.68-141.17 140-141.17s140 63.2 140 141.17z" stroke="#fff" stroke-width="2" fill="#005744"/><use xlink:href="#q" transform="matrix(1,0,0,1,1985,1865.0000000000002) translate(80.25925925925927 115.16666666666667)"/><use xlink:href="#r" transform="matrix(1,0,0,1,1985,1865.0000000000002) translate(72.77777777777777 179.16666666666669)"/><path d="M1560 2001.17c0 77.96-62.68 141.16-140 141.16s-140-63.2-140-141.16c0-77.97 62.68-141.17 140-141.17s140 63.2 140 141.17z" stroke="#fff" stroke-width="2" fill="#005744"/><use xlink:href="#s" transform="matrix(1,0,0,1,1285,1865.0000000000002) translate(50.703703703703695 115.16666666666667)"/><use xlink:href="#h" transform="matrix(1,0,0,1,1285,1865.0000000000002) translate(72.77777777777777 179.16666666666669)"/><path d="M2600 2001.17c0 77.96-62.68 141.16-140 141.16s-140-63.2-140-141.16c0-77.97 62.68-141.17 140-141.17s140 63.2 140 141.17z" stroke="#fff" stroke-width="2" fill="#005744"/><use xlink:href="#t" transform="matrix(1,0,0,1,2325,1865.0000000000002) translate(56.77777777777777 115.16666666666667)"/><use xlink:href="#r" transform="matrix(1,0,0,1,2325,1865.0000000000002) translate(72.77777777777777 179.16666666666669)"/><path d="M1190 2001.17c0 77.96-62.68 141.16-140 141.16s-140-63.2-140-141.16c0-77.97 62.68-141.17 140-141.17s140 63.2 140 141.17z" stroke="#fff" stroke-width="2" fill="#005744"/><g><use xlink:href="#j" transform="matrix(1,0,0,1,915,1865.0000000000002) translate(18.037037037037024 147.16666666666669)"/><use xlink:href="#h" transform="matrix(1,0,0,1,915,1865.0000000000002) translate(127.51851851851852 147.16666666666669)"/></g><path d="M2224.15 2260c113.8 0 206.04 44.77 206.04 100s-92.26 100-206.05 100h-618.1c-113.8 0-206.05-44.77-206.05-100s92.25-100 206.04-100z" stroke="#fff" stroke-width="2" fill="#005744"/><g><use xlink:href="#u" transform="matrix(1,0,0,1,1405,2265) translate(386.27777777777777 105.66666666666667)"/><use xlink:href="#v" transform="matrix(1,0,0,1,1405,2265) translate(460.05555555555554 105.66666666666667)"/></g><path d="M2232.98 2540c114.33 0 207.02 44.77 207.02 100s-92.7 100-207.02 100h-621.06c-114.33 0-207-44.77-207-100s92.67-100 207-100z" stroke="#fff" stroke-width="2" fill="#005744"/><g><use xlink:href="#u" transform="matrix(1,0,0,1,1409.9056603773583,2545) translate(365.1481481481481 105.66666666666667)"/><use xlink:href="#w" transform="matrix(1,0,0,1,1409.9056603773583,2545) translate(438.92592592592587 105.66666666666667)"/></g><path d="M1920 2001.17c0 77.96-62.68 141.16-140 141.16s-140-63.2-140-141.16c0-77.97 62.68-141.17 140-141.17s140 63.2 140 141.17z" stroke="#fff" stroke-width="2" fill="#005744"/><g><use xlink:href="#x" transform="matrix(1,0,0,1,1645,1865.0000000000002) translate(25.370370370370352 115.16666666666667)"/><use xlink:href="#h" transform="matrix(1,0,0,1,1645,1865.0000000000002) translate(72.77777777777777 179.16666666666669)"/></g><path d="M2940 2001.17c0 77.96-62.68 141.16-140 141.16s-140-63.2-140-141.16c0-77.97 62.68-141.17 140-141.17s140 63.2 140 141.17z" stroke="#fff" stroke-width="2" fill="#005744"/><g><use xlink:href="#y" transform="matrix(1,0,0,1,2665,1865.0000000000002) translate(38.18518518518519 115.16666666666667)"/><use xlink:href="#r" transform="matrix(1,0,0,1,2665,1865.0000000000002) translate(72.77777777777777 179.16666666666669)"/></g><defs><path fill="#fff" d="M233-177c-1 41-23 64-60 70L243 0h-38l-65-103H63V0H30v-248c88 3 205-21 203 71zM63-129c60-2 137 13 137-47 0-61-80-42-137-45v92" id="z"/><path fill="#fff" d="M100-194c62-1 85 37 85 99 1 63-27 99-86 99S16-35 15-95c0-66 28-99 85-99zM99-20c44 1 53-31 53-75 0-43-8-75-51-75s-53 32-53 75 10 74 51 75" id="A"/><path fill="#fff" d="M59-47c-2 24 18 29 38 22v24C64 9 27 4 27-40v-127H5v-23h24l9-43h21v43h35v23H59v120" id="B"/><g id="a"><use transform="matrix(0.1851851851851852,0,0,0.1851851851851852,0,0)" xlink:href="#z"/><use transform="matrix(0.1851851851851852,0,0,0.1851851851851852,47.96296296296297,0)" xlink:href="#A"/><use transform="matrix(0.1851851851851852,0,0,0.1851851851851852,85,0)" xlink:href="#A"/><use transform="matrix(0.1851851851851852,0,0,0.1851851851851852,122.03703703703705,0)" xlink:href="#B"/></g><path fill="#fff" d="M100-194c63 0 86 42 84 106H49c0 40 14 67 53 68 26 1 43-12 49-29l28 8c-11 28-37 45-77 45C44 4 14-33 15-96c1-61 26-98 85-98zm52 81c6-60-76-77-97-28-3 7-6 17-6 28h103" id="C"/><path fill="#fff" d="M85-194c31 0 48 13 60 33l-1-100h32l1 261h-30c-2-10 0-23-3-31C134-8 116 4 85 4 32 4 16-35 15-94c0-66 23-100 70-100zm9 24c-40 0-46 34-46 75 0 40 6 74 45 74 42 0 51-32 51-76 0-42-9-74-50-73" id="D"/><path fill="#fff" d="M84 4C-5 8 30-112 23-190h32v120c0 31 7 50 39 49 72-2 45-101 50-169h31l1 190h-30c-1-10 1-25-2-33-11 22-28 36-60 37" id="E"/><path fill="#fff" d="M96-169c-40 0-48 33-48 73s9 75 48 75c24 0 41-14 43-38l32 2c-6 37-31 61-74 61-59 0-76-41-82-99-10-93 101-131 147-64 4 7 5 14 7 22l-32 3c-4-21-16-35-41-35" id="F"/><path fill="#fff" d="M114-163C36-179 61-72 57 0H25l-1-190h30c1 12-1 29 2 39 6-27 23-49 58-41v29" id="G"/><g id="b"><use transform="matrix(0.1851851851851852,0,0,0.1851851851851852,0,0)" xlink:href="#z"/><use transform="matrix(0.1851851851851852,0,0,0.1851851851851852,47.96296296296297,0)" xlink:href="#C"/><use transform="matrix(0.1851851851851852,0,0,0.1851851851851852,85,0)" xlink:href="#D"/><use transform="matrix(0.1851851851851852,0,0,0.1851851851851852,122.03703703703705,0)" xlink:href="#E"/><use transform="matrix(0.1851851851851852,0,0,0.1851851851851852,159.07407407407408,0)" xlink:href="#F"/><use transform="matrix(0.1851851851851852,0,0,0.1851851851851852,192.40740740740742,0)" xlink:href="#C"/><use transform="matrix(0.1851851851851852,0,0,0.1851851851851852,229.44444444444446,0)" xlink:href="#G"/></g><path fill="#fff" d="M127-220V0H93v-220H8v-28h204v28h-85" id="H"/><path fill="#fff" d="M206 0h-36l-40-164L89 0H53L-1-190h32L70-26l43-164h34l41 164 42-164h31" id="I"/><path fill="#fff" d="M24-231v-30h32v30H24zM24 0v-190h32V0H24" id="J"/><g id="c"><use transform="matrix(0.14814814814814817,0,0,0.14814814814814817,0,0)" xlink:href="#H"/><use transform="matrix(0.14814814814814817,0,0,0.14814814814814817,29.481481481481488,0)" xlink:href="#I"/><use transform="matrix(0.14814814814814817,0,0,0.14814814814814817,67.85185185185186,0)" xlink:href="#J"/><use transform="matrix(0.14814814814814817,0,0,0.14814814814814817,79.55555555555557,0)" xlink:href="#B"/><use transform="matrix(0.14814814814814817,0,0,0.14814814814814817,94.37037037037038,0)" xlink:href="#B"/><use transform="matrix(0.14814814814814817,0,0,0.14814814814814817,109.18518518518518,0)" xlink:href="#C"/><use transform="matrix(0.14814814814814817,0,0,0.14814814814814817,138.81481481481484,0)" xlink:href="#G"/></g><path fill="#fff" d="M212-179c-10-28-35-45-73-45-59 0-87 40-87 99 0 60 29 101 89 101 43 0 62-24 78-52l27 14C228-24 195 4 139 4 59 4 22-46 18-125c-6-104 99-153 187-111 19 9 31 26 39 46" id="K"/><g id="d"><use transform="matrix(0.14814814814814817,0,0,0.14814814814814817,0,0)" xlink:href="#K"/><use transform="matrix(0.14814814814814817,0,0,0.14814814814814817,38.370370370370374,0)" xlink:href="#A"/><use transform="matrix(0.14814814814814817,0,0,0.14814814814814817,68,0)" xlink:href="#D"/><use transform="matrix(0.14814814814814817,0,0,0.14814814814814817,97.62962962962962,0)" xlink:href="#C"/></g><path fill="#fff" d="M185-189c-5-48-123-54-124 2 14 75 158 14 163 119 3 78-121 87-175 55-17-10-28-26-33-46l33-7c5 56 141 63 141-1 0-78-155-14-162-118-5-82 145-84 179-34 5 7 8 16 11 25" id="L"/><path fill="#fff" d="M115-194c55 1 70 41 70 98S169 2 115 4C84 4 66-9 55-30l1 105H24l-1-265h31l2 30c10-21 28-34 59-34zm-8 174c40 0 45-34 45-75s-6-73-45-74c-42 0-51 32-51 76 0 43 10 73 51 73" id="M"/><path fill="#fff" d="M24 0v-261h32V0H24" id="N"/><g id="e"><use transform="matrix(0.14814814814814817,0,0,0.14814814814814817,0,0)" xlink:href="#L"/><use transform="matrix(0.14814814814814817,0,0,0.14814814814814817,35.55555555555556,0)" xlink:href="#M"/><use transform="matrix(0.14814814814814817,0,0,0.14814814814814817,65.18518518518519,0)" xlink:href="#N"/><use transform="matrix(0.14814814814814817,0,0,0.14814814814814817,76.8888888888889,0)" xlink:href="#J"/><use transform="matrix(0.14814814814814817,0,0,0.14814814814814817,88.59259259259261,0)" xlink:href="#B"/></g><path fill="#fff" d="M30-248c87 1 191-15 191 75 0 78-77 80-158 76V0H30v-248zm33 125c57 0 124 11 124-50 0-59-68-47-124-48v98" id="O"/><path fill="#fff" d="M108 0H70L1-190h34L89-25l56-165h34" id="P"/><g id="f"><use transform="matrix(0.14814814814814817,0,0,0.14814814814814817,0,0)" xlink:href="#O"/><use transform="matrix(0.14814814814814817,0,0,0.14814814814814817,35.55555555555556,0)" xlink:href="#G"/><use transform="matrix(0.14814814814814817,0,0,0.14814814814814817,53.18518518518519,0)" xlink:href="#A"/><use transform="matrix(0.14814814814814817,0,0,0.14814814814814817,82.81481481481482,0)" xlink:href="#P"/><use transform="matrix(0.14814814814814817,0,0,0.14814814814814817,109.4814814814815,0)" xlink:href="#J"/><use transform="matrix(0.14814814814814817,0,0,0.14814814814814817,121.1851851851852,0)" xlink:href="#D"/><use transform="matrix(0.14814814814814817,0,0,0.14814814814814817,150.81481481481484,0)" xlink:href="#C"/><use transform="matrix(0.14814814814814817,0,0,0.14814814814814817,180.44444444444446,0)" xlink:href="#G"/></g><g id="g"><use transform="matrix(0.14814814814814817,0,0,0.14814814814814817,0,0)" xlink:href="#H"/><use transform="matrix(0.14814814814814817,0,0,0.14814814814814817,29.481481481481488,0)" xlink:href="#I"/><use transform="matrix(0.14814814814814817,0,0,0.14814814814814817,67.85185185185186,0)" xlink:href="#J"/><use transform="matrix(0.14814814814814817,0,0,0.14814814814814817,79.55555555555557,0)" xlink:href="#B"/><use transform="matrix(0.14814814814814817,0,0,0.14814814814814817,94.37037037037038,0)" xlink:href="#B"/><use transform="matrix(0.14814814814814817,0,0,0.14814814814814817,109.18518518518518,0)" xlink:href="#C"/><use transform="matrix(0.14814814814814817,0,0,0.14814814814814817,138.81481481481484,0)" xlink:href="#G"/></g><path fill="#fff" d="M141-36C126-15 110 5 73 4 37 3 15-17 15-53c-1-64 63-63 125-63 3-35-9-54-41-54-24 1-41 7-42 31l-33-3c5-37 33-52 76-52 45 0 72 20 72 64v82c-1 20 7 32 28 27v20c-31 9-61-2-59-35zM48-53c0 20 12 33 32 33 41-3 63-29 60-74-43 2-92-5-92 41" id="Q"/><path fill="#fff" d="M177-190C167-65 218 103 67 71c-23-6-38-20-44-43l32-5c15 47 100 32 89-28v-30C133-14 115 1 83 1 29 1 15-40 15-95c0-56 16-97 71-98 29-1 48 16 59 35 1-10 0-23 2-32h30zM94-22c36 0 50-32 50-73 0-42-14-75-50-75-39 0-46 34-46 75s6 73 46 73" id="R"/><g id="h"><use transform="matrix(0.14814814814814817,0,0,0.14814814814814817,0,0)" xlink:href="#O"/><use transform="matrix(0.14814814814814817,0,0,0.14814814814814817,35.55555555555556,0)" xlink:href="#Q"/><use transform="matrix(0.14814814814814817,0,0,0.14814814814814817,65.18518518518519,0)" xlink:href="#R"/><use transform="matrix(0.14814814814814817,0,0,0.14814814814814817,94.81481481481482,0)" xlink:href="#C"/></g><path fill="#fff" d="M143 4C61 4 22-44 18-125c-5-107 100-154 193-111 17 8 29 25 37 43l-32 9c-13-25-37-40-76-40-61 0-88 39-88 99 0 61 29 100 91 101 35 0 62-11 79-27v-45h-74v-28h105v86C228-13 192 4 143 4" id="S"/><path fill="#fff" d="M101-234c-31-9-42 10-38 44h38v23H63V0H32v-167H5v-23h27c-7-52 17-82 69-68v24" id="T"/><path fill="#fff" d="M135-143c-3-34-86-38-87 0 15 53 115 12 119 90S17 21 10-45l28-5c4 36 97 45 98 0-10-56-113-15-118-90-4-57 82-63 122-42 12 7 21 19 24 35" id="U"/><g id="i"><use transform="matrix(0.14814814814814817,0,0,0.14814814814814817,0,0)" xlink:href="#S"/><use transform="matrix(0.14814814814814817,0,0,0.14814814814814817,41.48148148148149,0)" xlink:href="#J"/><use transform="matrix(0.14814814814814817,0,0,0.14814814814814817,53.18518518518519,0)" xlink:href="#T"/><use transform="matrix(0.14814814814814817,0,0,0.14814814814814817,68,0)" xlink:href="#U"/></g><g id="j"><use transform="matrix(0.14814814814814817,0,0,0.14814814814814817,0,0)" xlink:href="#S"/><use transform="matrix(0.14814814814814817,0,0,0.14814814814814817,41.48148148148149,0)" xlink:href="#J"/><use transform="matrix(0.14814814814814817,0,0,0.14814814814814817,53.18518518518519,0)" xlink:href="#T"/><use transform="matrix(0.14814814814814817,0,0,0.14814814814814817,68,0)" xlink:href="#U"/></g><path fill="#fff" d="M240 0l2-218c-23 76-54 145-80 218h-23L58-218 59 0H30v-248h44l77 211c21-75 51-140 76-211h43V0h-30" id="V"/><g id="k"><use transform="matrix(0.14814814814814817,0,0,0.14814814814814817,0,0)" xlink:href="#V"/><use transform="matrix(0.14814814814814817,0,0,0.14814814814814817,44.296296296296305,0)" xlink:href="#A"/><use transform="matrix(0.14814814814814817,0,0,0.14814814814814817,73.92592592592594,0)" xlink:href="#P"/><use transform="matrix(0.14814814814814817,0,0,0.14814814814814817,100.59259259259261,0)" xlink:href="#J"/><use transform="matrix(0.14814814814814817,0,0,0.14814814814814817,112.2962962962963,0)" xlink:href="#C"/><use transform="matrix(0.14814814814814817,0,0,0.14814814814814817,141.92592592592595,0)" xlink:href="#U"/></g><g id="l"><use transform="matrix(0.14814814814814817,0,0,0.14814814814814817,0,0)" xlink:href="#O"/><use transform="matrix(0.14814814814814817,0,0,0.14814814814814817,35.55555555555556,0)" xlink:href="#A"/><use transform="matrix(0.14814814814814817,0,0,0.14814814814814817,65.18518518518519,0)" xlink:href="#D"/><use transform="matrix(0.14814814814814817,0,0,0.14814814814814817,94.81481481481482,0)" xlink:href="#F"/><use transform="matrix(0.14814814814814817,0,0,0.14814814814814817,121.4814814814815,0)" xlink:href="#Q"/><use transform="matrix(0.14814814814814817,0,0,0.14814814814814817,151.11111111111114,0)" xlink:href="#U"/><use transform="matrix(0.14814814814814817,0,0,0.14814814814814817,177.77777777777783,0)" xlink:href="#B"/><use transform="matrix(0.14814814814814817,0,0,0.14814814814814817,192.59259259259264,0)" xlink:href="#U"/></g><g id="m"><use transform="matrix(0.14814814814814817,0,0,0.14814814814814817,0,0)" xlink:href="#z"/><use transform="matrix(0.14814814814814817,0,0,0.14814814814814817,38.370370370370374,0)" xlink:href="#L"/><use transform="matrix(0.14814814814814817,0,0,0.14814814814814817,73.92592592592592,0)" xlink:href="#L"/></g><path fill="#fff" d="M137-103V0h-34v-103L8-248h37l75 118 75-118h37" id="W"/><path fill="#fff" d="M115-194c53 0 69 39 70 98 0 66-23 100-70 100C84 3 66-7 56-30L54 0H23l1-261h32v101c10-23 28-34 59-34zm-8 174c40 0 45-34 45-75 0-40-5-75-45-74-42 0-51 32-51 76 0 43 10 73 51 73" id="X"/><g id="n"><use transform="matrix(0.14814814814814817,0,0,0.14814814814814817,0,0)" xlink:href="#W"/><use transform="matrix(0.14814814814814817,0,0,0.14814814814814817,30.666666666666668,0)" xlink:href="#A"/><use transform="matrix(0.14814814814814817,0,0,0.14814814814814817,60.296296296296305,0)" xlink:href="#E"/><use transform="matrix(0.14814814814814817,0,0,0.14814814814814817,89.92592592592594,0)" xlink:href="#B"/><use transform="matrix(0.14814814814814817,0,0,0.14814814814814817,104.74074074074075,0)" xlink:href="#E"/><use transform="matrix(0.14814814814814817,0,0,0.14814814814814817,134.37037037037038,0)" xlink:href="#X"/><use transform="matrix(0.14814814814814817,0,0,0.14814814814814817,164,0)" xlink:href="#C"/></g><g id="o"><use transform="matrix(0.14814814814814817,0,0,0.14814814814814817,0,0)" xlink:href="#L"/><use transform="matrix(0.14814814814814817,0,0,0.14814814814814817,35.55555555555556,0)" xlink:href="#C"/><use transform="matrix(0.14814814814814817,0,0,0.14814814814814817,65.18518518518519,0)" xlink:href="#N"/><use transform="matrix(0.14814814814814817,0,0,0.14814814814814817,76.8888888888889,0)" xlink:href="#C"/><use transform="matrix(0.14814814814814817,0,0,0.14814814814814817,106.51851851851853,0)" xlink:href="#F"/><use transform="matrix(0.14814814814814817,0,0,0.14814814814814817,133.18518518518522,0)" xlink:href="#B"/><use transform="matrix(0.14814814814814817,0,0,0.14814814814814817,148.00000000000003,0)" xlink:href="#A"/><use transform="matrix(0.14814814814814817,0,0,0.14814814814814817,177.62962962962968,0)" xlink:href="#G"/><use transform="matrix(0.14814814814814817,0,0,0.14814814814814817,195.2592592592593,0)" xlink:href="#U"/></g><path fill="#fff" d="M205 0l-28-72H64L36 0H1l101-248h38L239 0h-34zm-38-99l-47-123c-12 45-31 82-46 123h93" id="Y"/><path fill="#fff" d="M117-194c89-4 53 116 60 194h-32v-121c0-31-8-49-39-48C34-167 62-67 57 0H25l-1-190h30c1 10-1 24 2 32 11-22 29-35 61-36" id="Z"/><g id="p"><use transform="matrix(0.14814814814814817,0,0,0.14814814814814817,0,0)" xlink:href="#Y"/><use transform="matrix(0.14814814814814817,0,0,0.14814814814814817,35.55555555555556,0)" xlink:href="#F"/><use transform="matrix(0.14814814814814817,0,0,0.14814814814814817,62.22222222222223,0)" xlink:href="#B"/><use transform="matrix(0.14814814814814817,0,0,0.14814814814814817,77.03703703703702,0)" xlink:href="#J"/><use transform="matrix(0.14814814814814817,0,0,0.14814814814814817,88.74074074074075,0)" xlink:href="#A"/><use transform="matrix(0.14814814814814817,0,0,0.14814814814814817,118.37037037037038,0)" xlink:href="#Z"/><use transform="matrix(0.14814814814814817,0,0,0.14814814814814817,148,0)" xlink:href="#U"/></g><g id="q"><use transform="matrix(0.14814814814814817,0,0,0.14814814814814817,0,0)" xlink:href="#z"/><use transform="matrix(0.14814814814814817,0,0,0.14814814814814817,38.370370370370374,0)" xlink:href="#L"/><use transform="matrix(0.14814814814814817,0,0,0.14814814814814817,73.92592592592592,0)" xlink:href="#L"/></g><g id="r"><use transform="matrix(0.14814814814814817,0,0,0.14814814814814817,0,0)" xlink:href="#O"/><use transform="matrix(0.14814814814814817,0,0,0.14814814814814817,35.55555555555556,0)" xlink:href="#Q"/><use transform="matrix(0.14814814814814817,0,0,0.14814814814814817,65.18518518518519,0)" xlink:href="#R"/><use transform="matrix(0.14814814814814817,0,0,0.14814814814814817,94.81481481481482,0)" xlink:href="#C"/></g><g id="s"><use transform="matrix(0.14814814814814817,0,0,0.14814814814814817,0,0)" xlink:href="#V"/><use transform="matrix(0.14814814814814817,0,0,0.14814814814814817,44.296296296296305,0)" xlink:href="#A"/><use transform="matrix(0.14814814814814817,0,0,0.14814814814814817,73.92592592592594,0)" xlink:href="#P"/><use transform="matrix(0.14814814814814817,0,0,0.14814814814814817,100.59259259259261,0)" xlink:href="#J"/><use transform="matrix(0.14814814814814817,0,0,0.14814814814814817,112.2962962962963,0)" xlink:href="#C"/><use transform="matrix(0.14814814814814817,0,0,0.14814814814814817,141.92592592592595,0)" xlink:href="#U"/></g><g id="t"><use transform="matrix(0.14814814814814817,0,0,0.14814814814814817,0,0)" xlink:href="#H"/><use transform="matrix(0.14814814814814817,0,0,0.14814814814814817,29.481481481481488,0)" xlink:href="#I"/><use transform="matrix(0.14814814814814817,0,0,0.14814814814814817,67.85185185185186,0)" xlink:href="#J"/><use transform="matrix(0.14814814814814817,0,0,0.14814814814814817,79.55555555555557,0)" xlink:href="#B"/><use transform="matrix(0.14814814814814817,0,0,0.14814814814814817,94.37037037037038,0)" xlink:href="#B"/><use transform="matrix(0.14814814814814817,0,0,0.14814814814814817,109.18518518518518,0)" xlink:href="#C"/><use transform="matrix(0.14814814814814817,0,0,0.14814814814814817,138.81481481481484,0)" xlink:href="#G"/></g><g id="u"><use transform="matrix(0.14814814814814817,0,0,0.14814814814814817,0,0)" xlink:href="#Y"/><use transform="matrix(0.14814814814814817,0,0,0.14814814814814817,35.55555555555556,0)" xlink:href="#N"/><use transform="matrix(0.14814814814814817,0,0,0.14814814814814817,47.25925925925927,0)" xlink:href="#N"/></g><g id="v"><use transform="matrix(0.14814814814814817,0,0,0.14814814814814817,0,0)" xlink:href="#Y"/><use transform="matrix(0.14814814814814817,0,0,0.14814814814814817,35.55555555555556,0)" xlink:href="#F"/><use transform="matrix(0.14814814814814817,0,0,0.14814814814814817,62.22222222222223,0)" xlink:href="#B"/><use transform="matrix(0.14814814814814817,0,0,0.14814814814814817,77.03703703703702,0)" xlink:href="#J"/><use transform="matrix(0.14814814814814817,0,0,0.14814814814814817,88.74074074074075,0)" xlink:href="#A"/><use transform="matrix(0.14814814814814817,0,0,0.14814814814814817,118.37037037037038,0)" xlink:href="#Z"/><use transform="matrix(0.14814814814814817,0,0,0.14814814814814817,148,0)" xlink:href="#U"/></g><g id="w"><use transform="matrix(0.14814814814814817,0,0,0.14814814814814817,0,0)" xlink:href="#L"/><use transform="matrix(0.14814814814814817,0,0,0.14814814814814817,35.55555555555556,0)" xlink:href="#C"/><use transform="matrix(0.14814814814814817,0,0,0.14814814814814817,65.18518518518519,0)" xlink:href="#N"/><use transform="matrix(0.14814814814814817,0,0,0.14814814814814817,76.8888888888889,0)" xlink:href="#C"/><use transform="matrix(0.14814814814814817,0,0,0.14814814814814817,106.51851851851853,0)" xlink:href="#F"/><use transform="matrix(0.14814814814814817,0,0,0.14814814814814817,133.18518518518522,0)" xlink:href="#B"/><use transform="matrix(0.14814814814814817,0,0,0.14814814814814817,148.00000000000003,0)" xlink:href="#A"/><use transform="matrix(0.14814814814814817,0,0,0.14814814814814817,177.62962962962968,0)" xlink:href="#G"/><use transform="matrix(0.14814814814814817,0,0,0.14814814814814817,195.2592592592593,0)" xlink:href="#U"/></g><g id="x"><use transform="matrix(0.14814814814814817,0,0,0.14814814814814817,0,0)" xlink:href="#O"/><use transform="matrix(0.14814814814814817,0,0,0.14814814814814817,35.55555555555556,0)" xlink:href="#A"/><use transform="matrix(0.14814814814814817,0,0,0.14814814814814817,65.18518518518519,0)" xlink:href="#D"/><use transform="matrix(0.14814814814814817,0,0,0.14814814814814817,94.81481481481482,0)" xlink:href="#F"/><use transform="matrix(0.14814814814814817,0,0,0.14814814814814817,121.4814814814815,0)" xlink:href="#Q"/><use transform="matrix(0.14814814814814817,0,0,0.14814814814814817,151.11111111111114,0)" xlink:href="#U"/><use transform="matrix(0.14814814814814817,0,0,0.14814814814814817,177.77777777777783,0)" xlink:href="#B"/><use transform="matrix(0.14814814814814817,0,0,0.14814814814814817,192.59259259259264,0)" xlink:href="#U"/></g><g id="y"><use transform="matrix(0.14814814814814817,0,0,0.14814814814814817,0,0)" xlink:href="#W"/><use transform="matrix(0.14814814814814817,0,0,0.14814814814814817,30.666666666666668,0)" xlink:href="#A"/><use transform="matrix(0.14814814814814817,0,0,0.14814814814814817,60.296296296296305,0)" xlink:href="#E"/><use transform="matrix(0.14814814814814817,0,0,0.14814814814814817,89.92592592592594,0)" xlink:href="#B"/><use transform="matrix(0.14814814814814817,0,0,0.14814814814814817,104.74074074074075,0)" xlink:href="#E"/><use transform="matrix(0.14814814814814817,0,0,0.14814814814814817,134.37037037037038,0)" xlink:href="#X"/><use transform="matrix(0.14814814814814817,0,0,0.14814814814814817,164,0)" xlink:href="#C"/></g></defs></g></svg>