<svg xmlns="http://www.w3.org/2000/svg" xmlns:xlink="http://www.w3.org/1999/xlink" xmlns:lucid="lucid" width="3280" height="1400"><g transform="translate(-260 -240)" lucid:page-tab-id="Ixd_.A.WWyNC"><path d="M1370 260l750 680-750 680-750-680z" stroke="#fff" stroke-width="2" fill="#005744"/><use xlink:href="#a" transform="matrix(1,0,0,1,625,265) translate(553.4074074074074 227.77777777777777)"/><use xlink:href="#b" transform="matrix(1,0,0,1,625,265) translate(701.8765432098766 227.77777777777777)"/><path d="M1370 580l125 112.5L1370 805l-125-112.5z" stroke="#fff" stroke-width="2" fill="#005744"/><use xlink:href="#c" transform="matrix(1,0,0,1,1250,585) translate(40.148148148148124 118.16666666666667)"/><use xlink:href="#d" transform="matrix(1,0,0,1,1250,585) translate(170.22222222222223 118.16666666666667)"/><path d="M1370 917.5l125 112.5-125 112.5-125-112.5z" stroke="#fff" stroke-width="2" fill="#005744"/><use xlink:href="#c" transform="matrix(1,0,0,1,1250,922.5) translate(40.148148148148124 118.16666666666667)"/><use xlink:href="#e" transform="matrix(1,0,0,1,1250,922.5) translate(170.22222222222223 118.16666666666667)"/><path d="M1370 1255l125 112.5-125 112.5-125-112.5z" stroke="#fff" stroke-width="2" fill="#005744"/><use xlink:href="#c" transform="matrix(1,0,0,1,1250,1260) translate(40.148148148148124 118.16666666666667)"/><use xlink:href="#f" transform="matrix(1,0,0,1,1250,1260) translate(170.22222222222223 118.16666666666667)"/><path d="M460 940c0 50.4-40.3 91.25-90 91.25S280 990.4 280 940s40.3-91.25 90-91.25 90 40.85 90 91.25z" stroke="#fff" stroke-width="2" fill="#005744"/><use xlink:href="#g" transform="matrix(1,0,0,1,285,853.75) translate(11 97.16666666666667)"/><path d="M462 940h138" stroke="#fff" stroke-width="2" fill="none"/><path d="M462.03 941h-1.06l.03-1-.02-1h1.05z" fill="#fff"/><path d="M615.28 940L601 944.64v-9.28z" stroke="#fff" stroke-width="2" fill="#fff"/><path d="M619.44 939.63L1226.3 699.3" stroke="#fff" stroke-width="2" fill="none"/><path d="M619.32 939.26l-.8.74.82.75-3.25 1.28-.75-1.86 3.75-1.48z" fill="#fff"/><path d="M1240.5 693.7l-11.56 9.55-3.4-8.62z" stroke="#fff" stroke-width="2" fill="#fff"/><path d="M619.5 940.14l605.7 87.22" stroke="#fff" stroke-width="2" fill="none"/><path d="M619.67 939.16l-.24 1.67-.92-.83.97-.87z" fill="#fff"/><path d="M1240.3 1029.54l-14.78 2.55 1.32-9.18z" stroke="#fff" stroke-width="2" fill="#fff"/><path d="M619.34 940.56l608.9 416.5" stroke="#fff" stroke-width="2" fill="none"/><path d="M619.27 939.3l-.76.7.78.7-.5.7-3.3-2.27 1.12-1.65z" fill="#fff"/><path d="M1240.83 1365.67l-14.4-4.23 5.25-7.65z" stroke="#fff" stroke-width="2" fill="#fff"/><path d="M1497.32 1366.94l608.9-416.5" stroke="#fff" stroke-width="2" fill="none"/><path d="M1497.9 1367.75l-3.32 2.27-.33-.5 2.24-2.02-.77-.7 1.05-.7z" fill="#fff"/><path d="M2118.82 941.83l-9.16 11.88-5.23-7.64z" stroke="#fff" stroke-width="2" fill="#fff"/><path d="M1497.48 1029.86l605.7-87.22" stroke="#fff" stroke-width="2" fill="none"/><path d="M1497.65 1030.84l-2.5.36 1.34-1.2-.97-.87 1.84-.27z" fill="#fff"/><path d="M2118.3 940.46l-13.47 6.62-1.33-9.17z" stroke="#fff" stroke-width="2" fill="#fff"/><path d="M1497.42 692.87L2104.3 933.2" stroke="#fff" stroke-width="2" fill="none"/><path d="M1497.82 691.95l-.74 1.86-1.42-.55.83-.75-2.14-1.92zM2118.48 938.8l-14.97-.93 3.42-8.62z" fill="#fff"/><path d="M2121.5 940l-19.43-1.22 4.43-11.18zm-16.55-3.05l10.52.67-8.12-6.73z" fill="#fff"/><path d="M2340 500h1180v880H2340z" stroke="#fff" stroke-width="2" fill="#005744"/><use xlink:href="#h" transform="matrix(1,0,0,1,2345,504.99999999999994) translate(507.22222222222223 93.33333333333334)"/><path d="M2791.3 660h277.4v174.65h-277.4z" stroke="#fff" stroke-width="2" fill="#005744"/><use xlink:href="#c" transform="matrix(1,0,0,1,2796.304347826087,665) translate(54.148148148148124 93.16666666666667)"/><use xlink:href="#d" transform="matrix(1,0,0,1,2796.304347826087,665) translate(184.22222222222223 93.16666666666667)"/><path d="M2791.3 890h277.4v174.65h-277.4z" stroke="#fff" stroke-width="2" fill="#005744"/><use xlink:href="#c" transform="matrix(1,0,0,1,2796.304347826087,894.9999999999999) translate(54.148148148148124 93.16666666666667)"/><use xlink:href="#e" transform="matrix(1,0,0,1,2796.304347826087,894.9999999999999) translate(184.22222222222223 93.16666666666667)"/><path d="M2791.3 1120h277.4v174.65h-277.4z" stroke="#fff" stroke-width="2" fill="#005744"/><use xlink:href="#c" transform="matrix(1,0,0,1,2796.304347826087,1125) translate(54.148148148148124 93.16666666666667)"/><use xlink:href="#f" transform="matrix(1,0,0,1,2796.304347826087,1125) translate(184.22222222222223 93.16666666666667)"/><path d="M2119.44 942.76h201.06" stroke="#fff" stroke-width="2" fill="none"/><path d="M2119.47 943.76h-2.13l2.13-1.93z" fill="#fff"/><path d="M2335.76 942.76l-14.26 4.64v-9.27z" stroke="#fff" stroke-width="2" fill="#fff"/><path d="M2119.44 942.76h109.28V940h91.78M2119.47 942.76h-1.03" stroke="#fff" stroke-width="2" fill="none"/><path d="M2335.76 940l-14.26 4.64v-9.28z" stroke="#fff" stroke-width="2" fill="#fff"/><path d="M619.44 939.63L1226.3 699.3M619.46 939.62l-.95.38" stroke="#fff" stroke-width="2" fill="none"/><path d="M1240.5 693.7l-11.56 9.55-3.4-8.62z" stroke="#fff" stroke-width="2" fill="#fff"/><defs><path fill="#fff" d="M233-177c-1 41-23 64-60 70L243 0h-38l-65-103H63V0H30v-248c88 3 205-21 203 71zM63-129c60-2 137 13 137-47 0-61-80-42-137-45v92" id="i"/><path fill="#fff" d="M100-194c62-1 85 37 85 99 1 63-27 99-86 99S16-35 15-95c0-66 28-99 85-99zM99-20c44 1 53-31 53-75 0-43-8-75-51-75s-53 32-53 75 10 74 51 75" id="j"/><path fill="#fff" d="M59-47c-2 24 18 29 38 22v24C64 9 27 4 27-40v-127H5v-23h24l9-43h21v43h35v23H59v120" id="k"/><g id="a"><use transform="matrix(0.17283950617283952,0,0,0.17283950617283952,0,0)" xlink:href="#i"/><use transform="matrix(0.17283950617283952,0,0,0.17283950617283952,44.76543209876544,0)" xlink:href="#j"/><use transform="matrix(0.17283950617283952,0,0,0.17283950617283952,79.33333333333334,0)" xlink:href="#j"/><use transform="matrix(0.17283950617283952,0,0,0.17283950617283952,113.90123456790124,0)" xlink:href="#k"/></g><path fill="#fff" d="M100-194c63 0 86 42 84 106H49c0 40 14 67 53 68 26 1 43-12 49-29l28 8c-11 28-37 45-77 45C44 4 14-33 15-96c1-61 26-98 85-98zm52 81c6-60-76-77-97-28-3 7-6 17-6 28h103" id="l"/><path fill="#fff" d="M85-194c31 0 48 13 60 33l-1-100h32l1 261h-30c-2-10 0-23-3-31C134-8 116 4 85 4 32 4 16-35 15-94c0-66 23-100 70-100zm9 24c-40 0-46 34-46 75 0 40 6 74 45 74 42 0 51-32 51-76 0-42-9-74-50-73" id="m"/><path fill="#fff" d="M84 4C-5 8 30-112 23-190h32v120c0 31 7 50 39 49 72-2 45-101 50-169h31l1 190h-30c-1-10 1-25-2-33-11 22-28 36-60 37" id="n"/><path fill="#fff" d="M96-169c-40 0-48 33-48 73s9 75 48 75c24 0 41-14 43-38l32 2c-6 37-31 61-74 61-59 0-76-41-82-99-10-93 101-131 147-64 4 7 5 14 7 22l-32 3c-4-21-16-35-41-35" id="o"/><path fill="#fff" d="M114-163C36-179 61-72 57 0H25l-1-190h30c1 12-1 29 2 39 6-27 23-49 58-41v29" id="p"/><g id="b"><use transform="matrix(0.17283950617283952,0,0,0.17283950617283952,0,0)" xlink:href="#i"/><use transform="matrix(0.17283950617283952,0,0,0.17283950617283952,44.76543209876544,0)" xlink:href="#l"/><use transform="matrix(0.17283950617283952,0,0,0.17283950617283952,79.33333333333334,0)" xlink:href="#m"/><use transform="matrix(0.17283950617283952,0,0,0.17283950617283952,113.90123456790124,0)" xlink:href="#n"/><use transform="matrix(0.17283950617283952,0,0,0.17283950617283952,148.46913580246914,0)" xlink:href="#o"/><use transform="matrix(0.17283950617283952,0,0,0.17283950617283952,179.58024691358025,0)" xlink:href="#l"/><use transform="matrix(0.17283950617283952,0,0,0.17283950617283952,214.14814814814818,0)" xlink:href="#p"/></g><path fill="#fff" d="M185-189c-5-48-123-54-124 2 14 75 158 14 163 119 3 78-121 87-175 55-17-10-28-26-33-46l33-7c5 56 141 63 141-1 0-78-155-14-162-118-5-82 145-84 179-34 5 7 8 16 11 25" id="q"/><path fill="#fff" d="M24 0v-261h32V0H24" id="r"/><path fill="#fff" d="M24-231v-30h32v30H24zM24 0v-190h32V0H24" id="s"/><g id="c"><use transform="matrix(0.14814814814814817,0,0,0.14814814814814817,0,0)" xlink:href="#q"/><use transform="matrix(0.14814814814814817,0,0,0.14814814814814817,35.55555555555556,0)" xlink:href="#r"/><use transform="matrix(0.14814814814814817,0,0,0.14814814814814817,47.25925925925927,0)" xlink:href="#s"/><use transform="matrix(0.14814814814814817,0,0,0.14814814814814817,58.962962962962976,0)" xlink:href="#o"/><use transform="matrix(0.14814814814814817,0,0,0.14814814814814817,85.62962962962965,0)" xlink:href="#l"/></g><path fill="#fff" d="M27 0v-27h64v-190l-56 39v-29l58-41h29v221h61V0H27" id="t"/><use transform="matrix(0.14814814814814817,0,0,0.14814814814814817,0,0)" xlink:href="#t" id="d"/><path fill="#fff" d="M101-251c82-7 93 87 43 132L82-64C71-53 59-42 53-27h129V0H18c2-99 128-94 128-182 0-28-16-43-45-43s-46 15-49 41l-32-3c6-41 34-60 81-64" id="u"/><use transform="matrix(0.14814814814814817,0,0,0.14814814814814817,0,0)" xlink:href="#u" id="e"/><path fill="#fff" d="M126-127c33 6 58 20 58 59 0 88-139 92-164 29-3-8-5-16-6-25l32-3c6 27 21 44 54 44 32 0 52-15 52-46 0-38-36-46-79-43v-28c39 1 72-4 72-42 0-27-17-43-46-43-28 0-47 15-49 41l-32-3c6-42 35-63 81-64 48-1 79 21 79 65 0 36-21 52-52 59" id="v"/><use transform="matrix(0.14814814814814817,0,0,0.14814814814814817,0,0)" xlink:href="#v" id="f"/><path fill="#fff" d="M205 0l-28-72H64L36 0H1l101-248h38L239 0h-34zm-38-99l-47-123c-12 45-31 82-46 123h93" id="w"/><path fill="#fff" d="M117-194c89-4 53 116 60 194h-32v-121c0-31-8-49-39-48C34-167 62-67 57 0H25l-1-190h30c1 10-1 24 2 32 11-22 29-35 61-36" id="x"/><g id="g"><use transform="matrix(0.14814814814814817,0,0,0.14814814814814817,0,0)" xlink:href="#w"/><use transform="matrix(0.14814814814814817,0,0,0.14814814814814817,35.55555555555556,0)" xlink:href="#o"/><use transform="matrix(0.14814814814814817,0,0,0.14814814814814817,62.22222222222223,0)" xlink:href="#k"/><use transform="matrix(0.14814814814814817,0,0,0.14814814814814817,77.03703703703702,0)" xlink:href="#s"/><use transform="matrix(0.14814814814814817,0,0,0.14814814814814817,88.74074074074075,0)" xlink:href="#j"/><use transform="matrix(0.14814814814814817,0,0,0.14814814814814817,118.37037037037038,0)" xlink:href="#x"/></g><path fill="#fff" d="M141-36C126-15 110 5 73 4 37 3 15-17 15-53c-1-64 63-63 125-63 3-35-9-54-41-54-24 1-41 7-42 31l-33-3c5-37 33-52 76-52 45 0 72 20 72 64v82c-1 20 7 32 28 27v20c-31 9-61-2-59-35zM48-53c0 20 12 33 32 33 41-3 63-29 60-74-43 2-92-5-92 41" id="y"/><g id="h"><use transform="matrix(0.1851851851851852,0,0,0.1851851851851852,0,0)" xlink:href="#q"/><use transform="matrix(0.1851851851851852,0,0,0.1851851851851852,44.44444444444445,0)" xlink:href="#k"/><use transform="matrix(0.1851851851851852,0,0,0.1851851851851852,62.96296296296297,0)" xlink:href="#y"/><use transform="matrix(0.1851851851851852,0,0,0.1851851851851852,100.00000000000001,0)" xlink:href="#k"/><use transform="matrix(0.1851851851851852,0,0,0.1851851851851852,118.5185185185185,0)" xlink:href="#l"/></g></defs></g></svg>