<svg xmlns="http://www.w3.org/2000/svg" xmlns:xlink="http://www.w3.org/1999/xlink" xmlns:lucid="lucid" width="1540" height="2460"><g transform="translate(-120 -20)" lucid:page-tab-id="g~X_TXQDvnpe"><path d="M890 40l750 680-750 680-750-680z" stroke="#fff" stroke-width="2" fill="#005744"/><use xlink:href="#a" transform="matrix(1,0,0,1,145,45) translate(539.7222222222222 231.33333333333334)"/><use xlink:href="#b" transform="matrix(1,0,0,1,145,45) translate(698.7962962962963 231.33333333333334)"/><path d="M320 1580h1180v880H320z" stroke="#fff" stroke-width="2" fill="#005744"/><use xlink:href="#c" transform="matrix(1,0,0,1,325,1585) translate(507.22222222222223 93.33333333333334)"/><path d="M546.3 1820h277.4v174.65H546.3z" stroke="#fff" stroke-width="2" fill="#005744"/><use xlink:href="#d" transform="matrix(1,0,0,1,551.304347826087,1825) translate(62.29629629629629 92.27777777777777)"/><path d="M685 420l125 112.5L685 645 560 532.5z" stroke="#fff" stroke-width="2" fill="#005744"/><use xlink:href="#d" transform="matrix(1,0,0,1,565,425) translate(48.29629629629629 117.27777777777777)"/><path d="M1026.3 1820h277.4v174.65h-277.4z" stroke="#fff" stroke-width="2" fill="#005744"/><use xlink:href="#e" transform="matrix(1,0,0,1,1031.304347826087,1825) translate(90.61111111111111 92.27777777777777)"/><path d="M1085 420l125 112.5L1085 645 960 532.5z" stroke="#fff" stroke-width="2" fill="#005744"/><use xlink:href="#e" transform="matrix(1,0,0,1,965,425) translate(76.61111111111111 117.27777777777777)"/><defs><path fill="#fff" d="M233-177c-1 41-23 64-60 70L243 0h-38l-65-103H63V0H30v-248c88 3 205-21 203 71zM63-129c60-2 137 13 137-47 0-61-80-42-137-45v92" id="f"/><path fill="#fff" d="M100-194c62-1 85 37 85 99 1 63-27 99-86 99S16-35 15-95c0-66 28-99 85-99zM99-20c44 1 53-31 53-75 0-43-8-75-51-75s-53 32-53 75 10 74 51 75" id="g"/><path fill="#fff" d="M59-47c-2 24 18 29 38 22v24C64 9 27 4 27-40v-127H5v-23h24l9-43h21v43h35v23H59v120" id="h"/><g id="a"><use transform="matrix(0.1851851851851852,0,0,0.1851851851851852,0,0)" xlink:href="#f"/><use transform="matrix(0.1851851851851852,0,0,0.1851851851851852,47.96296296296297,0)" xlink:href="#g"/><use transform="matrix(0.1851851851851852,0,0,0.1851851851851852,85,0)" xlink:href="#g"/><use transform="matrix(0.1851851851851852,0,0,0.1851851851851852,122.03703703703705,0)" xlink:href="#h"/></g><path fill="#fff" d="M100-194c63 0 86 42 84 106H49c0 40 14 67 53 68 26 1 43-12 49-29l28 8c-11 28-37 45-77 45C44 4 14-33 15-96c1-61 26-98 85-98zm52 81c6-60-76-77-97-28-3 7-6 17-6 28h103" id="i"/><path fill="#fff" d="M85-194c31 0 48 13 60 33l-1-100h32l1 261h-30c-2-10 0-23-3-31C134-8 116 4 85 4 32 4 16-35 15-94c0-66 23-100 70-100zm9 24c-40 0-46 34-46 75 0 40 6 74 45 74 42 0 51-32 51-76 0-42-9-74-50-73" id="j"/><path fill="#fff" d="M84 4C-5 8 30-112 23-190h32v120c0 31 7 50 39 49 72-2 45-101 50-169h31l1 190h-30c-1-10 1-25-2-33-11 22-28 36-60 37" id="k"/><path fill="#fff" d="M96-169c-40 0-48 33-48 73s9 75 48 75c24 0 41-14 43-38l32 2c-6 37-31 61-74 61-59 0-76-41-82-99-10-93 101-131 147-64 4 7 5 14 7 22l-32 3c-4-21-16-35-41-35" id="l"/><path fill="#fff" d="M114-163C36-179 61-72 57 0H25l-1-190h30c1 12-1 29 2 39 6-27 23-49 58-41v29" id="m"/><g id="b"><use transform="matrix(0.1851851851851852,0,0,0.1851851851851852,0,0)" xlink:href="#f"/><use transform="matrix(0.1851851851851852,0,0,0.1851851851851852,47.96296296296297,0)" xlink:href="#i"/><use transform="matrix(0.1851851851851852,0,0,0.1851851851851852,85,0)" xlink:href="#j"/><use transform="matrix(0.1851851851851852,0,0,0.1851851851851852,122.03703703703705,0)" xlink:href="#k"/><use transform="matrix(0.1851851851851852,0,0,0.1851851851851852,159.07407407407408,0)" xlink:href="#l"/><use transform="matrix(0.1851851851851852,0,0,0.1851851851851852,192.40740740740742,0)" xlink:href="#i"/><use transform="matrix(0.1851851851851852,0,0,0.1851851851851852,229.44444444444446,0)" xlink:href="#m"/></g><path fill="#fff" d="M185-189c-5-48-123-54-124 2 14 75 158 14 163 119 3 78-121 87-175 55-17-10-28-26-33-46l33-7c5 56 141 63 141-1 0-78-155-14-162-118-5-82 145-84 179-34 5 7 8 16 11 25" id="n"/><path fill="#fff" d="M141-36C126-15 110 5 73 4 37 3 15-17 15-53c-1-64 63-63 125-63 3-35-9-54-41-54-24 1-41 7-42 31l-33-3c5-37 33-52 76-52 45 0 72 20 72 64v82c-1 20 7 32 28 27v20c-31 9-61-2-59-35zM48-53c0 20 12 33 32 33 41-3 63-29 60-74-43 2-92-5-92 41" id="o"/><g id="c"><use transform="matrix(0.1851851851851852,0,0,0.1851851851851852,0,0)" xlink:href="#n"/><use transform="matrix(0.1851851851851852,0,0,0.1851851851851852,44.44444444444445,0)" xlink:href="#h"/><use transform="matrix(0.1851851851851852,0,0,0.1851851851851852,62.96296296296297,0)" xlink:href="#o"/><use transform="matrix(0.1851851851851852,0,0,0.1851851851851852,100.00000000000001,0)" xlink:href="#h"/><use transform="matrix(0.1851851851851852,0,0,0.1851851851851852,118.5185185185185,0)" xlink:href="#i"/></g><path fill="#fff" d="M127-220V0H93v-220H8v-28h204v28h-85" id="p"/><path fill="#fff" d="M206 0h-36l-40-164L89 0H53L-1-190h32L70-26l43-164h34l41 164 42-164h31" id="q"/><path fill="#fff" d="M24-231v-30h32v30H24zM24 0v-190h32V0H24" id="r"/><g id="d"><use transform="matrix(0.1358024691358025,0,0,0.1358024691358025,0,0)" xlink:href="#p"/><use transform="matrix(0.1358024691358025,0,0,0.1358024691358025,27.024691358024693,0)" xlink:href="#q"/><use transform="matrix(0.1358024691358025,0,0,0.1358024691358025,62.19753086419753,0)" xlink:href="#r"/><use transform="matrix(0.1358024691358025,0,0,0.1358024691358025,72.92592592592592,0)" xlink:href="#h"/><use transform="matrix(0.1358024691358025,0,0,0.1358024691358025,86.50617283950616,0)" xlink:href="#h"/><use transform="matrix(0.1358024691358025,0,0,0.1358024691358025,100.08641975308643,0)" xlink:href="#i"/><use transform="matrix(0.1358024691358025,0,0,0.1358024691358025,127.24691358024694,0)" xlink:href="#m"/></g><path fill="#fff" d="M143 4C61 4 22-44 18-125c-5-107 100-154 193-111 17 8 29 25 37 43l-32 9c-13-25-37-40-76-40-61 0-88 39-88 99 0 61 29 100 91 101 35 0 62-11 79-27v-45h-74v-28h105v86C228-13 192 4 143 4" id="s"/><path fill="#fff" d="M101-234c-31-9-42 10-38 44h38v23H63V0H32v-167H5v-23h27c-7-52 17-82 69-68v24" id="t"/><path fill="#fff" d="M135-143c-3-34-86-38-87 0 15 53 115 12 119 90S17 21 10-45l28-5c4 36 97 45 98 0-10-56-113-15-118-90-4-57 82-63 122-42 12 7 21 19 24 35" id="u"/><g id="e"><use transform="matrix(0.1358024691358025,0,0,0.1358024691358025,0,0)" xlink:href="#s"/><use transform="matrix(0.1358024691358025,0,0,0.1358024691358025,38.0246913580247,0)" xlink:href="#r"/><use transform="matrix(0.1358024691358025,0,0,0.1358024691358025,48.753086419753096,0)" xlink:href="#t"/><use transform="matrix(0.1358024691358025,0,0,0.1358024691358025,62.33333333333334,0)" xlink:href="#u"/></g></defs></g></svg>